<svg width="2822" height="1322" viewBox="0 0 2822 1322" fill="none" xmlns="http://www.w3.org/2000/svg">
<path d="M0.0332031 22.6646H155.287V753.833H0.0332031V22.6646Z" fill="#0B063B"/>
<path d="M267.725 99.787C267.725 42.7715 310.518 0 367.594 0C424.67 0 467.463 42.7583 467.463 99.787C467.463 156.816 424.67 199.574 367.594 199.574C310.532 197.897 267.725 156.816 267.725 99.787V99.787Z" fill="#0B063B"/>
<path d="M2621.65 655.67C2621.65 598.654 2664.44 555.883 2721.52 555.883C2778.59 555.883 2821.39 598.641 2821.39 655.67C2821.39 712.698 2778.59 755.457 2721.52 755.457C2664.46 753.78 2621.65 712.698 2621.65 655.67V655.67Z" fill="#0B063B"/>
<path d="M444.822 244.861H289.568V753.829H444.822V244.861Z" fill="#0B063B"/>
<path d="M562.273 489.686C562.273 318.627 662.975 231.434 814.028 231.434C965.08 231.434 1065.78 318.64 1065.78 489.686V753.814H910.528V489.686C910.528 409.186 871.922 374.811 814.028 374.811C756.133 374.811 717.527 409.186 717.527 489.686V753.814H562.273V489.686V489.686Z" fill="#0B063B"/>
<path d="M1183.29 22.6646H1338.54V459.515L1499.66 244.865H1691.83L1484.54 493.904L1700.22 753.833H1503.85L1337.69 534.14V753.833H1182.44V22.6646H1183.29Z" fill="#0B063B"/>
<path d="M1723.93 499.748C1723.93 352.397 1831.54 244.861 1983.81 244.861C2136.08 244.861 2241.3 352.384 2241.3 499.748V540.367H1876.2C1888.16 596.921 1931.2 623.204 1983.81 623.204C2026.06 623.204 2057.15 613.647 2075.49 587.363H2227.74C2195.86 686.926 2104.19 753.829 1983.02 753.829C1831.56 753.829 1723.94 646.306 1723.94 499.748H1723.93ZM2089.82 447.181C2073.08 397.004 2034.82 376.291 1983.01 376.291C1931.19 376.291 1892.13 398.588 1877.79 447.181H2089.84H2089.82Z" fill="#0B063B"/>
<path d="M2335.5 465.37C2335.5 306.059 2427.81 231.434 2565.44 231.434C2703.07 231.434 2793.7 304.383 2795.38 465.37V467.891H2640.13V463.693C2640.13 395.774 2609.91 375.655 2565.44 375.655C2520.97 375.655 2490.75 396.619 2490.75 463.693V753.814H2335.5V465.37V465.37Z" fill="#0B063B"/>
<path d="M0.0132249 1315.13V958.688H212.33V1035.14H76.5106V1085.81H187.399V1162.26H76.5106V1315.14H0L0.0132249 1315.13ZM382.54 1315.13V958.688H459.05V1315.13H382.54ZM655.037 1315.13V958.688H737.559L868.212 1176.85V958.688H944.723V1315.13H862.201L731.547 1096.97V1315.13H655.037ZM1252.46 959.546H1339.27L1468.21 1315.99H1387.4L1367.64 1259.3H1225.81L1206.04 1315.99H1125.24L1252.46 959.546V959.546ZM1252.46 1182.86H1339.27L1295.43 1065.19L1252.46 1182.86ZM1636.7 1315.13V958.688H1719.22L1849.88 1176.85V958.688H1926.39V1315.13H1843.86L1713.21 1096.97V1315.13H1636.7ZM2279.67 1322C2255.6 1322 2233.26 1317.7 2211.76 1308.25C2190.27 1297.94 2172.22 1285.92 2155.03 1268.74C2139.56 1251.57 2126.67 1231.81 2116.35 1209.48C2107.75 1187.15 2102.59 1163.11 2102.59 1137.34C2102.59 1111.57 2106.89 1087.52 2116.35 1065.19C2124.95 1042.86 2137.84 1023.11 2155.03 1005.93C2170.5 988.76 2190.28 975.876 2211.76 966.424C2233.26 956.114 2255.6 952.682 2279.67 952.682C2308.04 952.682 2334.69 959.546 2358.76 972.43C2382.83 985.315 2402.6 1003.35 2419.79 1026.54L2351.88 1063.48C2343.28 1053.17 2332.11 1045.45 2320.93 1039.43C2308.04 1033.42 2295.15 1030.83 2281.39 1030.83C2267.64 1030.83 2254.74 1033.41 2242.71 1039.43C2231.53 1045.43 2220.35 1052.31 2211.76 1063.48C2203.16 1073.79 2196.29 1084.96 2190.27 1097.83C2184.26 1110.71 2183.4 1124.45 2183.4 1139.91C2183.4 1155.37 2185.97 1168.26 2190.27 1182C2196.28 1194.88 2203.16 1206.05 2211.76 1216.35C2220.37 1226.66 2231.53 1233.52 2242.71 1240.4C2255.6 1246.41 2268.5 1248.99 2281.39 1248.99C2295.15 1248.99 2308.04 1246.42 2320.93 1240.4C2333.83 1234.38 2343.29 1226.66 2351.88 1214.63L2419.79 1251.57C2404.32 1273.9 2384.54 1291.08 2358.76 1305.68C2333.83 1317.7 2309.76 1322 2279.67 1322V1322ZM2594.29 1315.13V958.688H2821.22V1035.14H2670.79V1085.81H2786.83V1162.26H2670.79V1238.71H2821.22V1315.16H2594.29V1315.13Z" fill="#0B063B"/>
</svg>
